PathFileType	4	(X/Y/Z)	pose_F01_0-96.trc
DataRate	CameraRate	NumFrames	NumMarkers	Units	OrigDataRate	OrigDataStartFrame	OrigNumFrames
30	30	7	21	m	30	36	96
Frame#	Time	CHip			RHip			RKnee			RAnkle			RBigToe			RSmallToe			RHeel			LHip			LKnee			LAnkle			LBigToe			LSmallToe			LHeel			Neck			Nose			RShoulder			RElbow			RWrist			LShoulder			LElbow			LWrist			
		X1	Y1	Z1	X2	Y2	Z2	X3	Y3	Z3	X4	Y4	Z4	X5	Y5	Z5	X6	Y6	Z6	X7	Y7	Z7	X8	Y8	Z8	X9	Y9	Z9	X10	Y10	Z10	X11	Y11	Z11	X12	Y12	Z12	X13	Y13	Z13	X14	Y14	Z14	X15	Y15	Z15	X16	Y16	Z16	X17	Y17	Z17	X18	Y18	Z18	X19	Y19	Z19	X20	Y20	Z20	X21	Y21	Z21	
36	1.2	-0.11574551686415137	1.8389153168116836	-0.6684209328573336	-0.13622092174235734	1.8372237966211655	-0.6170364902671818	-0.14978405853158233	1.7031612189406742	-0.6197031868452492	-0.1441717386793776	1.5741071333321766	-0.5751583245227802	-0.17584673006622792	1.543617833406379	-0.615751594227172	-0.18009813875363612	1.546362248829788	-0.5869101640456452	-0.13413186974262603	1.56578690753601	-0.5679130541142271	-0.08788210629945437	1.8415659738514414	-0.7153649081153302	-0.09777622455067994	1.7029324879056462	-0.6917538894524685	-0.10100765824675037	1.5837020725202997	-0.650696760403578	-0.22534256734270786	1.4883351229526318	-1.1654535666722368	-0.21260442718389805	1.4928483762382567	-1.183480551511682	-0.10330224867362717	1.5608724971692587	-0.6357080521663555	-0.10365423698245967	1.986891915293389	-0.668868659886101	-0.10607010148331282	2.0315084568309048	-0.7443268226924505	-1.728494942718334	1.890367025438133	1.145051456529978	-0.183510863396048	1.9200944298455247	-0.5432395005507378	-0.24959972240414502	1.9136402727391588	-0.5580541575931695	-0.06517910148505345	1.9888588518661807	-0.7417421329629817	-0.05554775967524844	1.9289989580486058	-0.785254967926998	-0.08237566020937209	1.9778085056313537	-0.7872833265800829
37	1.2333333333333334	-0.11752051591561145	1.837542551017969	-0.6659524029007149	-0.13868407954489603	1.8344216584795834	-0.6175553755557952	-0.14772516726779386	1.7043048274065042	-0.6220325682605777	-0.14474059081265617	1.5742573086693588	-0.5744596518321607	-0.17626346483293254	1.543372268243683	-0.6148350961233339	-0.18052323497088846	1.5466083580784833	-0.5857043633185449	-0.13661955286531116	1.5638160839390616	-0.5730467783277567	-0.08907878691211045	1.8391555363294296	-0.7094737750948575	-0.09696131145853724	1.7033441966477438	-0.6885251136171994	-0.24067376620062228	1.513843459987682	-1.2153887182463696	-0.22299132735508995	1.4875201400390934	-1.1693091065340822	-0.21102311715468794	1.4915604041929342	-1.190484481391813	-0.10234343805833258	1.5553350797030914	-0.6310857590784645	-0.10445716035949014	1.9874312120571784	-0.671851232208039	-0.10910924208934732	2.0320620139491354	-0.7449297486331043	-0.14334957392930278	1.9851315132076977	-0.6088358808373364	-0.1854905409746585	1.9230271285191194	-0.5412419155672006	-0.25568718970271054	1.910996053293536	-0.5507058754154546	-0.06530238241743133	1.9901953203972187	-0.7419806771928872	-0.059461241390746176	1.9320476438198562	-0.8018775834417818	-0.08001434171253402	1.9809968273277418	-0.7901016948854115
38	1.2666666666666666	-0.11911975975961843	1.8322616456159027	-0.6595617552636427	-0.14511221015240344	1.8287814011658277	-0.6098739869017002	-0.15192847779257942	1.7001765059218235	-0.6167143585013237	-0.14483302059046516	1.5715760333986992	-0.5741146578292088	-0.17914658299325723	1.5403229395818614	-0.6244325839483422	-0.18336105690160817	1.542980825615776	-0.5956100571651015	-0.13627096931047805	1.5613898717260373	-0.5734933781441852	-0.08983989606937684	1.8325574893384735	-0.69970699830865	-0.09676469396904297	1.7021012860209705	-0.6885260912739739	-0.09833228573783712	1.5842155803572862	-0.6537689369870486	-0.22276160435394227	1.4922688740845973	-1.1688138570877376	-0.21082170489406601	1.4977640949678568	-1.1898383766423375	-0.10093978833339667	1.560152336146854	-0.6382500531783075	-0.10443764853821881	1.9874936836529746	-0.6718056232677062	-0.1195137663678265	2.0325159391888956	-0.7299579699313218	-1.6972512968987497	1.8904382276476521	1.0907559355363807	-0.19106666195484906	1.9256584936074788	-0.5522405876279297	-0.2661819403427399	1.9060148504924193	-0.5586998617515467	-0.06490594663282069	1.9872689571785846	-0.738996827418707	-0.05928972171146767	1.9324846674041478	-0.7995016019827414	-0.09162055841670473	1.9855470206098187	-0.7788822986179056
39	1.3	-0.12150970404693423	1.8322161722542398	-0.6570820915957949	-0.14684669970231023	1.8302698587421797	-0.604413960265954	-0.15353903617938078	1.699627745952095	-0.6106847302056067	-0.14480313447405263	1.5715811094190053	-0.5739031069881577	-0.17624934822564287	1.5403102908581363	-0.6145677217752751	-0.18240522256491237	1.5431882779146264	-0.5923167731044893	-0.13555875732775677	1.5626149590885239	-0.5698957149925976	-0.09010638486351699	1.834777404819879	-0.6998957198373377	-0.0954821377996447	1.7015210489981962	-0.6814336116896336	-0.09849866093371702	1.5857120582898694	-0.6534983908670817	-0.22290331236862904	1.4923105937059105	-1.1699206516291052	-0.20779319660958037	1.4952002551419539	-1.1904709330582162	-0.10113715041474693	1.5648276516159174	-0.6383495067825102	-0.10674904064795003	1.9881964060891122	-0.6813886063446919	-0.12619773639316836	2.03391960797135	-0.7231826657042313	-0.1429768583576441	1.9879953020790035	-0.6178213697269699	-0.18959025402718913	1.9346333164194962	-0.5565009336896287	-0.25817225422363416	1.913415023975528	-0.5605660496280227	-0.06628316389438259	1.9876524105939044	-0.7453646128688263	-0.0600100025768269	1.9299336867023504	-0.8021701151720002	-0.09800656066032955	1.9842440864858908	-0.7707367363885161
40	1.3333333333333333	-0.12115122927487594	1.8331133652886054	-0.6540084550348328	-0.1470645970531771	1.8328018179119152	-0.6045148950185671	-0.15268154901301606	1.6996259790292831	-0.607446456668351	-0.14482366369652971	1.5715213427472183	-0.5738896887004065	-0.17521484068500928	1.5421176527552818	-0.6117496356659651	-0.18054454997772906	1.5431727048792534	-0.5856327926330221	-0.1354000708464773	1.561344284845947	-0.5701873906220676	-0.09331364475562734	1.8346439321189025	-0.7006103897806653	-0.09964331760252022	1.7007778452403604	-0.6852519863105413	-0.23082183027487482	1.5167400718190713	-1.2175307410787015	-0.21723270995841737	1.4902627392834018	-1.1742466289596338	-0.20201400847803747	1.4959410010072738	-1.195618315622376	-0.09536835731889275	1.5620967714137246	-0.6484069952287747	-0.10456762485999486	1.9867063572552666	-0.6833159119549376	-0.1298148584965964	2.033148835529251	-0.7154452662717224	-0.14286128745564844	1.9865950524531224	-0.61744155191316	-0.18977592677528005	1.9270655220103277	-0.5668510025847248	-0.26228133044105423	1.919248050130178	-0.5828185770044793	-0.06603691298944603	1.9874168206859222	-0.7449988540360085	-0.06055532961820692	1.9229422149903903	-0.8040939107705904	-0.09645848808608584	1.9814796934671004	-0.7757649943619361
41	1.3666666666666667	-0.12157785682914667	1.8294074107621756	-0.6568196451729835	-0.14464904411576965	1.8286839163638406	-0.606386758495095	-0.15248328902669228	1.6985197117993909	-0.6075164345862277	-0.14480842745744196	1.5715218008251077	-0.5739135741132196	-0.1803106318690157	1.54032954277083	-0.6188954176508157	-0.18244015652648088	1.5429849241208509	-0.5922213109146302	-0.13512866299012405	1.5600407471645186	-0.5704609420089796	-0.0937149775024314	1.831114796601174	-0.7034569367504768	-0.1041426993280125	1.702431836867193	-0.6932383726213098	-0.23223125887346904	1.5165348299524852	-1.2095024132785002	-0.21780356101586193	1.4878133161051303	-1.1632417504070773	-0.20261992697775433	1.4932947974856656	-1.1847092588423767	-0.09549526173062087	1.5648198705832237	-0.6490982404504005	-0.10167681656247855	1.9853029338120949	-0.6825744634193085	-0.1284865056645657	2.030776520414904	-0.7095478985565334	-0.14000810384899007	1.9850474901912258	-0.6166747060932595	-0.18730543003614816	1.9312774923595992	-0.5668301692671459	-0.26087444894242634	1.9190752749913902	-0.5880707064605345	-0.06395505958053062	1.9861051385948265	-0.7473449758254104	-0.056891836334874275	1.9291333139640796	-0.7893095962792209	-0.09322423634379379	1.982732577799784	-0.7748248644226293
42	1.4	-0.11593648070051132	1.8336585102591303	-0.6675919324310492	-0.13828050177674694	1.8305858093498684	-0.6137175133215701	-0.14897544568361834	1.7014949756910933	-0.6160231691361893	-0.14486504761750882	1.5716391827100336	-0.5741864485128617	-0.18014320653464885	1.5420787082633998	-0.6196079733583465	-0.18234372706247226	1.5454434648791677	-0.5925868078443628	-0.13627555166313726	1.5612791274764273	-0.5735947782080605	-0.09182893171055466	1.8350552361415415	-0.7185376483319826	-0.09865116961130374	1.7014280655450664	-0.6947344002715046	-0.22987451383868407	1.5159336691983265	-1.2132202515743686	-0.21773651428919089	1.4865822121755652	-1.162419147827864	-0.20019241994083778	1.4901571236987556	-1.1875940458606065	-0.09290670148396342	1.5631175437472835	-0.6514367873968179	-0.09802656434078219	1.9864999843753794	-0.6904104107341928	-0.1285296975944386	2.0307030506917694	-0.7095007532170671	-1.7074785721663226	1.8903981969246002	1.1087078390555616	-0.18059761315478667	1.929042845608352	-0.5729664167365497	-0.25162532485836764	1.9184004865596078	-0.5938286092322306	-1.5063671488435257	1.889902519997375	0.7939048381045545	-0.057339386256994904	1.9274950525095687	-0.8036718849174905	-0.09483292187675602	1.9922049443242396	-0.772157658738095
